<svg width="20" height="20" viewBox="0 0 20 20" fill="none" xmlns="http://www.w3.org/2000/svg">
<path d="M17.625 10.2773C17.625 10.7695 17.2383 11.1211 16.7812 11.1211H11.1562V16.7461C11.1562 17.2383 10.7695 17.625 10.3125 17.625C9.82031 17.625 9.46875 17.2383 9.46875 16.7461V11.1211H3.84375C3.35156 11.1211 3 10.7695 3 10.3125C3 9.82031 3.35156 9.43359 3.84375 9.43359H9.46875V3.80859C9.46875 3.35156 9.82031 3 10.3125 3C10.7695 3 11.1562 3.35156 11.1562 3.80859V9.43359H16.7812C17.2383 9.43359 17.625 9.82031 17.625 10.2773Z" fill="white"/>
</svg>
