<svg width="20" height="20" viewBox="0 0 20 20" fill="none" xmlns="http://www.w3.org/2000/svg">
<path d="M17.4336 11.5977C17.8906 11.7383 18.1367 12.1953 17.9961 12.6523C17.0117 15.9922 13.918 18.3125 10.4375 18.3125C7.66016 18.3125 5.09375 16.8008 3.6875 14.4453V18.0312C3.6875 18.5234 3.33594 18.875 2.84375 18.875C2.38672 18.875 2 18.5234 2 18.0312V12.4062C2 11.9492 2.38672 11.5625 2.84375 11.5625H8.46875C8.96094 11.5625 9.3125 11.9492 9.3125 12.4062C9.3125 12.8984 8.92578 13.25 8.46875 13.25H4.91797C5.97266 15.2891 8.08203 16.625 10.4375 16.625C13.1797 16.625 15.6406 14.7969 16.3789 12.1602C16.5195 11.7031 16.9766 11.457 17.4336 11.5977ZM18.0664 2C18.5234 2 18.9102 2.38672 18.9102 2.84375V8.46875C18.9102 8.96094 18.5234 9.3125 18.0664 9.3125H12.4414C11.9492 9.3125 11.5977 8.96094 11.5977 8.46875C11.5977 8.01172 11.9492 7.625 12.4414 7.625H15.957C14.9023 5.62109 12.793 4.25 10.4727 4.25C7.73047 4.25 5.26953 6.11328 4.49609 8.71484C4.39062 9.17188 3.93359 9.41797 3.47656 9.27734C3.01953 9.17188 2.77344 8.67969 2.87891 8.25781C3.86328 4.91797 6.99219 2.5625 10.4727 2.5625C13.25 2.5625 15.8164 4.10938 17.2227 6.46484V2.84375C17.2227 2.38672 17.5742 2 18.0664 2Z" fill="#414651"/>
</svg>
